<?xml version="1.0"?>
<svg id="logo_PSG" xmlns="http://www.w3.org/2000/svg" version="1.1" viewBox="49.2 49.2 283.5 283.5">
  
  <g>
    <path d="M190.95,49.217c-78.154,0-141.733,63.581-141.733,141.733s63.579,141.733,141.733,141.733,141.731-63.582,141.731-141.733S269.101,49.217,190.95,49.217Z" fill="#004070"></path>
    <path d="M190.754,64.6c69.803,0,126.39,56.587,126.39,126.387s-56.587,126.393-126.39,126.393-126.389-56.589-126.389-126.393,56.587-126.387,126.389-126.387M190.754,59.39c-35.151,0-68.198,13.688-93.054,38.544-24.856,24.855-38.545,57.903-38.545,93.053s13.689,68.199,38.545,93.057c24.856,24.857,57.903,38.545,93.054,38.545s68.199-13.688,93.055-38.545c24.856-24.857,38.545-57.905,38.545-93.057s-13.688-68.198-38.545-93.053c-24.855-24.856-57.903-38.544-93.055-38.544h0Z" fill="#fff"></path>
    <g>
      <path d="M120.756,101.37l-8.868,9.731,7.945,7.241,8.868-9.733c1.997-2.189,1.838-5.595-.352-7.59-2.19-1.998-5.595-1.839-7.592.352Z" fill="none"></path>
      <path d="M207.795,84.579c0-2.962-2.41-5.373-5.373-5.373h-12.1v10.747h12.1c2.963,0,5.373-2.41,5.373-5.374Z" fill="none"></path>
      <g>
        <path d="M128.348,101.018c-2.19-1.998-5.595-1.839-7.592.352l-8.868,9.731,7.945,7.241,8.868-9.733c1.997-2.189,1.838-5.595-.352-7.59Z" fill="none"></path>
        <g>
          <path d="M207.795,84.579c0-2.962-2.41-5.373-5.373-5.373h-12.1v10.747h12.1c2.963,0,5.373-2.41,5.373-5.374Z" fill="none"></path>
          <path d="M226.361,113.512l12.507-30.084c-2.05-.915-4.131-1.771-6.241-2.571l-12.496,30.06c2.118.784,4.195,1.652,6.23,2.595Z" fill="#fff"></path>
        </g>
      </g>
      <path d="M190.322,105.561v-9.848h8.244l7.113,11.246c2.817.51,5.587,1.155,8.302,1.933l-8.527-13.593c4.889-1.305,8.918-5.611,8.918-10.72,0-6.138-5.811-11.134-11.949-11.134h-18.683v32.391c2.172-.165,4.36-.274,6.574-.274h.008ZM190.322,79.205h12.1c2.963,0,5.373,2.411,5.373,5.373s-2.41,5.374-5.373,5.374h-12.1v-10.747Z" fill="#fff"></path>
      <path d="M131.459,128.938l-7.374-6.721,9.135-10.057c4.136-4.538,4.138-11.831-.4-15.967-4.538-4.137-11.923-3.567-16.059.968l-13.564,14.926,23.63,21.532c1.479-1.624,3.035-3.175,4.632-4.681ZM111.888,111.101l8.868-9.731c1.997-2.19,5.402-2.35,7.592-.352,2.19,1.995,2.35,5.401.352,7.59l-8.868,9.733-7.945-7.241Z" fill="#fff"></path>
      <path d="M254.855,101.643c4.872-1.143,13.83,7.753,15.544,13.781,1.424-1.084,4.591-3.412,4.591-3.412-3.783-10.773-18.861-21.559-26.023-14.804-4.251,4.013-1.841,10.193,1.869,14.096l3.598,3.788c3.674,3.869,6.883,7.717,3.933,10.154-3.145,2.6-11.938-3.915-17.223-15.098l-4.732,3.573c1.129,2.942,3.68,7.205,7.103,10.808,3.884,4.089,8.111,6.75,11.904,7.497,2.976.585,5.941.141,7.899-1.676,4.879-4.528,3.105-11.127-4.565-19.201l-3.18-3.345c-3.53-3.72-2.088-5.839-.719-6.162Z" fill="#fff"></path>
      <path d="M154.81,78.847c-2.314.742-4.6,1.552-6.85,2.431l-2.432,36.907c2.185-1.338,4.436-2.58,6.745-3.723l.346-8.601c4.453-1.964,9.089-3.587,13.877-4.845l5.669,6.503c2.491-.537,5.022-.969,7.588-1.284l-24.943-27.389ZM152.857,99.935l.559-13.918,9.164,10.51c-3.317.971-6.561,2.109-9.724,3.409Z" fill="#fff"></path>
    </g>
    <g>
      <path d="M201.07,119.759c3.18,46.524,22.565,80.251,54.461,104.181,4.925-9.779,7.715-20.816,7.715-32.513,0-36.513-27.035-66.699-62.176-71.668Z" fill="none"></path>
      <path d="M180.636,119.757c-35.149,4.964-62.189,35.152-62.189,71.67,0,11.698,2.792,22.739,7.718,32.519,31.901-23.929,51.291-57.66,54.471-104.189Z" fill="none"></path>
      <path d="M190.847,214.509c-16.914,0-30.628,13.023-30.628,29.088,0,5.661,1.707,10.939,4.651,15.408,8.065,3.102,16.818,4.819,25.976,4.819s17.913-1.718,25.977-4.821c2.943-4.467,4.65-9.746,4.65-15.406,0-16.064-13.712-29.088-30.627-29.088Z" fill="#004070"></path>
      <path d="M217.602,192.877h-53.556c-8.875,14.728-20.337,27.43-33.735,38.246,5.791,8.814,13.449,16.285,22.418,21.852-.333-1.909-.515-3.868-.515-5.866,0-19.951,17.295-36.122,38.632-36.122s38.63,16.171,38.63,36.122c0,1.998-.182,3.957-.515,5.866,8.962-5.561,16.615-13.024,22.404-21.826-13.413-10.823-24.883-23.532-33.765-38.271Z" fill="#e30613"></path>
      <path d="M215.943,190.055c-11.318-19.859-18.014-43.301-18.513-70.717-2.17-.196-4.363-.312-6.583-.312-2.235,0-4.444.117-6.628.314-.499,27.414-7.195,50.857-18.515,70.714h50.239Z" fill="#e30613"></path>
      <path d="M190.847,113.816c-42.794,0-77.609,34.816-77.609,77.611s34.815,77.607,77.609,77.607,77.609-34.813,77.609-77.607-34.814-77.611-77.609-77.611ZM190.847,119.026c2.22,0,4.414.116,6.583.312.499,27.415,7.194,50.858,18.513,70.717h-50.239c11.32-19.856,18.017-43.3,18.515-70.714,2.184-.197,4.393-.314,6.628-.314ZM118.447,191.427c0-36.518,27.04-66.706,62.189-71.67-3.18,46.529-22.57,80.26-54.471,104.189-4.926-9.779-7.718-20.82-7.718-32.519ZM216.824,259.003c-8.065,3.103-16.818,4.821-25.977,4.821s-17.911-1.718-25.976-4.819c-2.944-4.469-4.651-9.747-4.651-15.408,0-16.064,13.714-29.088,30.628-29.088s30.627,13.023,30.627,29.088c0,5.66-1.707,10.939-4.65,15.406ZM228.962,252.975c.333-1.909.515-3.868.515-5.866,0-19.951-17.292-36.122-38.63-36.122s-38.632,16.171-38.632,36.122c0,1.998.182,3.957.515,5.866-8.97-5.566-16.627-13.038-22.418-21.852,13.398-10.816,24.86-23.518,33.735-38.246h53.556c8.882,14.739,20.352,27.448,33.765,38.271-5.789,8.802-13.442,16.265-22.404,21.826ZM201.07,119.759c35.141,4.969,62.176,35.156,62.176,71.668,0,11.696-2.79,22.733-7.715,32.513-31.896-23.93-51.281-57.657-54.461-104.181Z" fill="#fff"></path>
    </g>
    <g>
      <path d="M193.42,252.228c-.845-.518-1.489-1.343-1.72-2.333-.102-.376-.446-.653-.854-.653s-.754.277-.857.653c-.229.99-.874,1.815-1.719,2.333-.154.093-.168.16-.107.279.515,1.021,1.382,2.282,2.443,3.137.15.122.206.129.241.129.034,0,.086-.007.237-.129,1.065-.855,1.928-2.115,2.445-3.137.06-.119.046-.186-.108-.279Z" fill="#ceab5d"></path>
      <path d="M195.886,235.978c0-2.959-3.869-12.186-5.04-12.186-.084,0-.179.044-.288.13-1.411,1.139-4.754,9.303-4.754,12.056,0,2.207,4.456,8.019,4.456,11.18h0v.003c0,.323.262.588.586.588.322,0,.586-.265.586-.588,0-.007-.002-.014-.002-.022.017-3.162,4.455-8.958,4.455-11.16Z" fill="#ceab5d"></path>
      <path d="M188.332,246.887c-2.092-5.514-5.699-8.529-9.446-8.529-2.833,0-5.131,2.296-5.131,5.131s2.298,5.13,5.131,5.13c.845,0,1.732-.406,2.162-.893.741-.843.596-1.67.524-1.835-.088-.208-.272-.163-.349-.15-.078.01-.215.023-.304.023-.951,0-1.719-.768-1.719-1.717s.768-1.717,1.719-1.717c1.683,0,4.66,1.619,6.26,5.081,0,.005.002.008.004.012.004.009.01.017.013.027h0c.107.206.325.348.569.344.352-.004.632-.293.63-.643-.002-.093-.025-.183-.063-.263Z" fill="#ceab5d"></path>
      <path d="M202.639,238.358c-3.747,0-7.354,3.016-9.444,8.529-.04.08-.061.17-.062.263-.004.351.277.64.627.643.248.004.463-.138.57-.344h0c.004-.011.009-.019.012-.027.002-.004.004-.007.006-.012,1.599-3.462,4.574-5.081,6.261-5.081.947,0,1.718.767,1.718,1.717s-.77,1.717-1.718,1.717c-.091,0-.227-.014-.305-.023-.08-.013-.26-.058-.35.15-.07.165-.217.992.523,1.835.431.487,1.318.893,2.162.893,2.835,0,5.132-2.298,5.132-5.13s-2.297-5.131-5.132-5.131Z" fill="#ceab5d"></path>
    </g>
  </g>
  <g>
    <g>
      <g>
        <path d="M126.182,277.692l-1.556-1.17,1.318-4.333-4.132-3.511-4.106,1.955-1.391-1.278,12.124-5.726,1.478,1.255-3.736,12.809ZM127.75,265.886l-4.189,1.985,2.909,2.472,1.28-4.457Z" fill="#fff"></path>
        <path d="M138.17,271.007l-6.801,10.313-1.46-.959,6.799-10.313,1.462.959Z" fill="#fff"></path>
        <path d="M143.498,274.398l2.103,11.52.029.014,4.288-8.166,1.547.812-5.639,10.759-1.534-.698-2.12-11.651-.028-.014-4.36,8.285-1.501-.874,5.668-10.802,1.547.814Z" fill="#fff"></path>
        <path d="M164.486,283.374l-.576,1.65-4.019-1.4-3.453,9.91-1.648-.577,3.45-9.906-4.02-1.4.574-1.65,9.692,3.374Z" fill="#fff"></path>
        <path d="M191.165,292.439l5.565.09-.053,3.222c-.038,2.183-2.453,3.601-5.497,3.551-3.236-.054-6.579-2.326-6.512-6.451.055-3.463,2.867-6.265,6.751-6.2,2.895.045,4.393,1.592,5.093,2.282l-1.233,1.225c-.589-.59-1.509-1.72-3.709-1.758-3.221-.053-5.116,2.022-5.156,4.56-.04,2.38,1.804,4.544,4.878,4.596,2.104.034,3.624-.913,3.637-1.949l.025-1.356-3.816-.063.027-1.747Z" fill="#fff"></path>
        <path d="M210.076,285.099l.249,1.73-8.108,1.161.453,3.157,4.088-.589.248,1.734-4.086.585.525,3.67,8.412-1.209.246,1.73-10.141,1.455-1.723-12.017,9.836-1.409Z" fill="#fff"></path>
        <path d="M221.105,282.039c1.859-.561,3.925-.149,4.639,2.22.759,2.524-.69,3.824-1.644,4.196l3.793,4.088-1.833.659-3.77-4.137-4.322,1.302,1.461,4.877-1.674.477-3.496-11.622,6.848-2.06ZM216.431,285.269l1.033,3.426,5.174-1.559c1.255-.378,1.771-1.242,1.432-2.375-.395-1.316-1.5-1.339-2.463-1.05l-5.176,1.558Z" fill="#fff"></path>
        <path d="M258.74,275.045l-1.522,1.213-3.758-2.298-4.418,3.144.853,4.396-1.557.994-2.562-13.059,1.581-1.122,11.382,6.732ZM247.798,270.659l.891,4.551,3.114-2.216-4.005-2.335Z" fill="#fff"></path>
        <path d="M254.954,262.272l8.288,8.917-1.307,1.161-8.261-8.887,1.279-1.19Z" fill="#fff"></path>
        <path d="M259.767,257.516l11.685.804.022-.022-6.859-6.169,1.17-1.301,9.023,8.118-1.046,1.302-11.809-.808-.021.025,6.944,6.249-1.226,1.25-9.053-8.148,1.17-1.3Z" fill="#fff"></path>
        <polygon points="239.206 273.83 237.648 274.624 237.385 283.227 230.266 278.389 228.709 279.184 234.011 290.105 235.599 289.396 231.921 281.634 231.952 281.617 239.003 286.398 239.274 277.884 239.305 277.868 243.434 285.414 244.951 284.562 239.206 273.83" fill="#fff"></polygon>
      </g>
      <path d="M121.598,258.181c-.992-3.704-4.751-7.339-7.588-7.339-.635,0-1.202.184-1.689.545-.572.426-.913.993-1.012,1.685-.159,1.085.279,2.451,1.175,3.649l1.293,1.728c1.002,1.338,1.967,2.739,1.767,3.843-.079.443-.331.803-.746,1.071-.229.146-.491.22-.783.22-1.755,0-4.728-3.129-6.189-7.615l-.027-.082-1.277,1.2-.025.024.008.029c.285,1.122,1.048,2.933,2.332,4.653,1.349,1.802,2.888,3.051,4.331,3.515.466.15.922.227,1.359.227.632,0,1.192-.163,1.619-.475.704-.515,1.119-1.168,1.234-1.941.216-1.433-.546-3.323-2.26-5.614l-1.142-1.528c-.912-1.221-.873-2.014-.679-2.464.169-.394.535-.668.948-.718.063-.005.13-.008.198-.008,2.083,0,5.034,3.456,5.801,6.136l.019.068.06-.036c.433-.25.935-.537,1.244-.713l.038-.02-.011-.04Z" fill="#fff"></path>
    </g>
    <path d="M174.949,292.95l-4.327-.952.397-1.746,4.318.972-.389,1.727Z" fill="#fff"></path>
  </g>
</svg>