<?xml version="1.0"?>
<svg id="logo_PSG" xmlns="http://www.w3.org/2000/svg" version="1.1" viewBox="49.2 49.2 283.5 283.5">
  
  <g>
    <path d="M291.173,90.736c-26.775-26.775-62.36-41.52-100.229-41.52s-73.443,14.745-100.218,41.52c-26.775,26.764-41.509,62.36-41.509,100.218s14.734,73.454,41.509,100.229c26.775,26.764,62.36,41.509,100.218,41.509s73.454-14.745,100.229-41.509c26.775-26.775,41.509-62.371,41.509-100.229s-14.734-73.454-41.509-100.218ZM190.944,327.081c-75.177,0-136.116-60.949-136.116-136.126S115.767,54.828,190.944,54.828s136.126,60.949,136.126,136.126-60.939,136.126-136.126,136.126Z" fill="#1d1d1b"></path>
    <g>
      <path d="M229.298,107.51l13.47-32.401c-2.208-.986-4.449-1.907-6.722-2.769l-13.459,32.376c2.281.845,4.518,1.779,6.71,2.795Z" fill="#1d1d1b"></path>
      <path d="M216.383,76.347c0-6.613-6.258-11.987-12.871-11.987h-20.119v34.885c2.337-.183,4.696-.302,7.076-.302h.011v-10.598h8.886l7.658,12.106c3.037.549,6.021,1.249,8.939,2.079l-9.187-14.637c5.267-1.4,9.607-6.042,9.607-11.546ZM190.481,82.131v-11.567h13.032c3.199,0,5.794,2.596,5.794,5.784s-2.596,5.784-5.794,5.784h-13.032Z" fill="#1d1d1b"></path>
      <path d="M128.551,88.862c-4.89-4.459-12.838-3.845-17.297,1.034l-14.605,16.08,25.45,23.189c1.594-1.745,3.263-3.414,4.987-5.041l-7.938-7.238,9.833-10.835c4.459-4.89,4.459-12.741-.431-17.189ZM124.114,102.228l-9.553,10.48-8.552-7.798,9.553-10.48c2.143-2.359,5.816-2.531,8.175-.377s2.531,5.816.377,8.175Z" fill="#1d1d1b"></path>
      <path d="M259.987,94.728c5.247-1.231,14.895,8.351,16.741,14.842,1.533-1.168,4.944-3.674,4.944-3.674-4.075-11.603-20.314-23.22-28.027-15.944-4.578,4.322-1.983,10.979,2.013,15.182l3.875,4.079c3.957,4.167,7.413,8.312,4.236,10.936-3.388,2.8-12.858-4.216-18.549-16.261l-5.097,3.849c1.216,3.169,3.963,7.76,7.651,11.641,4.183,4.404,8.736,7.271,12.821,8.075,3.205.631,6.399.151,8.508-1.805,5.255-4.877,3.345-11.985-4.917-20.68l-3.425-3.603c-3.802-4.007-2.249-6.289-.774-6.636Z" fill="#1d1d1b"></path>
      <path d="M152.235,70.176c-2.488.797-4.954,1.669-7.378,2.617l-2.617,39.753c2.348-1.443,4.771-2.779,7.259-4.017l.377-9.262c4.793-2.111,9.79-3.856,14.949-5.213l6.107,7.001c2.682-.571,5.407-1.045,8.164-1.379l-26.861-29.5ZM150.135,92.891l.603-14.992,9.866,11.32c-3.576,1.045-7.065,2.273-10.469,3.673Z" fill="#1d1d1b"></path>
    </g>
    <path d="M191.051,107.84c-46.097,0-83.589,37.492-83.589,83.589s37.492,83.589,83.589,83.589,83.589-37.502,83.589-83.589-37.502-83.589-83.589-83.589ZM191.051,113.451c2.391,0,4.75.118,7.087.334.539,29.532,7.744,54.778,19.936,76.168h-54.11c12.192-21.39,19.408-46.636,19.947-76.168,2.348-.205,4.728-.334,7.141-.334ZM113.074,191.428c0-39.333,29.123-71.849,66.981-77.191-3.425,50.114-24.309,86.443-58.666,112.216-5.31-10.533-8.315-22.424-8.315-35.025ZM219.022,264.214c-8.681,3.339-18.105,5.191-27.971,5.191s-19.29-1.852-27.981-5.191c-3.166-4.814-5.008-10.501-5.008-16.597,0-17.308,14.766-31.331,32.99-31.331s32.979,14.023,32.979,31.331c0,6.096-1.831,11.783-5.008,16.597ZM232.097,257.72c.366-2.057.56-4.168.56-6.322,0-21.487-18.622-38.902-41.606-38.902s-41.606,17.416-41.606,38.902c0,2.154.194,4.265.549,6.322-9.661-5.999-17.911-14.045-24.147-23.533,14.432-11.653,26.775-25.332,36.339-41.197h57.675c9.564,15.876,21.918,29.565,36.371,41.218-6.236,9.478-14.486,17.523-24.136,23.512ZM202.059,114.237c37.847,5.353,66.97,37.869,66.97,77.191,0,12.601-3.005,24.481-8.315,35.014-34.347-25.773-55.23-62.102-58.655-112.205Z" fill="#1d1d1b"></path>
    <g>
      <path d="M193.82,256.912c-.91-.557-1.604-1.446-1.852-2.513-.11-.405-.48-.704-.92-.704s-.812.299-.923.704c-.247,1.066-.941,1.955-1.851,2.513-.166.1-.181.173-.116.301.554,1.1,1.488,2.458,2.631,3.378.162.132.222.139.259.139.037,0,.093-.007.256-.139,1.147-.92,2.077-2.278,2.633-3.378.064-.128.049-.201-.117-.301Z" fill="#1d1d1b"></path>
      <path d="M196.476,239.41c0-3.187-4.167-13.124-5.428-13.124-.09,0-.193.047-.31.14-1.52,1.226-5.121,10.019-5.121,12.984,0,2.377,4.799,8.637,4.799,12.041h0v.003c0,.348.282.633.632.633.347,0,.632-.285.632-.633,0-.007-.002-.015-.002-.024.018-3.406,4.798-9.648,4.798-12.02Z" fill="#1d1d1b"></path>
      <path d="M188.34,251.16c-2.253-5.938-6.138-9.186-10.173-9.186-3.052,0-5.527,2.473-5.527,5.526s2.475,5.525,5.527,5.525c.91,0,1.865-.437,2.328-.962.798-.908.642-1.799.564-1.976-.095-.224-.292-.176-.376-.162-.084.011-.231.025-.327.025-1.024,0-1.851-.827-1.851-1.849s.827-1.849,1.851-1.849c1.813,0,5.019,1.744,6.742,5.472,0,.005.003.008.005.013.005.009.011.018.014.03h0c.115.222.35.374.613.37.38-.004.68-.315.678-.693-.003-.1-.027-.197-.068-.283Z" fill="#1d1d1b"></path>
      <path d="M203.749,241.974c-4.036,0-7.921,3.248-10.172,9.186-.043.086-.065.183-.067.283-.004.378.299.689.675.693.267.004.499-.148.614-.37h.001c.004-.012.009-.02.013-.03.002-.004.004-.007.006-.013,1.722-3.729,4.927-5.472,6.743-5.472,1.02,0,1.85.827,1.85,1.849s-.83,1.849-1.85,1.849c-.098,0-.245-.015-.328-.025-.086-.014-.28-.062-.378.162-.076.178-.234,1.069.564,1.976.464.525,1.42.962,2.329.962,3.053,0,5.527-2.475,5.527-5.525s-2.474-5.526-5.527-5.526Z" fill="#1d1d1b"></path>
    </g>
  </g>
  <g>
    <g>
      <g>
        <path d="M123.834,269.19l-13.054,6.171,1.497,1.368,4.416-2.1,4.448,3.78-1.411,4.664,1.669,1.26,4.028-13.786-1.594-1.357ZM121.712,276.428l-3.134-2.671,4.513-2.133-1.379,4.804Z" fill="#1d1d1b"></path>
        <path d="M132.741,276.105l-7.324,11.104,1.572,1.034,7.324-11.104-1.572-1.034Z" fill="#1d1d1b"></path>
        <path d="M146.968,284.419l-4.62,8.789-.032-.011-2.262-12.407-1.669-.872-6.107,11.632,1.616.937,4.696-8.918.032.011,2.283,12.547,1.659.754,6.064-11.589-1.659-.872Z" fill="#1d1d1b"></path>
        <path d="M152.214,286.821l-.614,1.777,4.33,1.508-3.716,10.673,1.777.625,3.716-10.673,4.33,1.508.625-1.777-10.447-3.64Z" fill="#1d1d1b"></path>
        <path d="M191.385,300.22l-.021,1.885,4.103.065-.022,1.465c-.011,1.109-1.648,2.133-3.92,2.1-3.307-.054-5.299-2.391-5.256-4.954.043-2.736,2.089-4.965,5.558-4.911,2.369.043,3.36,1.26,3.996,1.896l1.325-1.325c-.754-.743-2.359-2.402-5.482-2.456-4.179-.065-7.216,2.951-7.27,6.678-.075,4.448,3.522,6.893,7.012,6.947,3.274.054,5.881-1.465,5.924-3.823l.054-3.468-5.999-.097Z" fill="#1d1d1b"></path>
        <path d="M213.68,303.343l-9.058,1.303-.571-3.953,4.405-.625-.269-1.874-4.405.635-.485-3.403,8.735-1.249-.269-1.863-10.598,1.519,1.853,12.946,10.921-1.572-.258-1.863Z" fill="#1d1d1b"></path>
        <path d="M226.863,295.933c1.023-.398,2.585-1.799,1.766-4.524-.765-2.553-2.994-2.994-4.987-2.391l-7.378,2.219,3.759,12.515,1.809-.506-1.572-5.256,4.653-1.4,4.06,4.448,1.971-.7-4.082-4.405ZM225.29,294.511l-5.579,1.68-1.109-3.694,5.579-1.68c1.034-.302,2.219-.28,2.65,1.131.366,1.228-.194,2.154-1.54,2.563Z" fill="#1d1d1b"></path>
        <path d="M251.915,274.231l-1.702,1.217,2.757,14.066,1.68-1.077-.926-4.728,4.761-3.393,4.05,2.477,1.637-1.303-12.257-7.259ZM253.347,281.662l-.959-4.9,4.308,2.52-3.35,2.38Z" fill="#1d1d1b"></path>
        <path d="M260.089,267.725l-1.379,1.282,8.907,9.575,1.4-1.249-8.929-9.607Z" fill="#1d1d1b"></path>
        <path d="M280.348,265.55l1.131-1.4-9.715-8.746-1.26,1.4,7.378,6.645-.021.021-12.58-.862-1.26,1.4,9.747,8.778,1.325-1.346-7.485-6.731.022-.032,12.72.872Z" fill="#1d1d1b"></path>
        <polygon points="243.132 280.178 241.455 281.034 241.172 290.3 233.504 285.089 231.828 285.944 237.538 297.708 239.248 296.943 235.287 288.583 235.32 288.565 242.915 293.714 243.206 284.545 243.24 284.528 247.687 292.655 249.32 291.738 243.132 280.178" fill="#1d1d1b"></polygon>
      </g>
      <path d="M116.465,263.323c-1.069-3.989-5.117-7.904-8.172-7.904-.684,0-1.295.198-1.819.587-.616.459-.983,1.07-1.09,1.814-.171,1.168.301,2.64,1.266,3.931l1.393,1.862c1.079,1.441,2.118,2.95,1.903,4.139-.085.477-.357.865-.803,1.154-.247.158-.529.237-.844.237-1.891,0-5.092-3.37-6.666-8.202l-.029-.088-1.376,1.293-.027.026.009.032c.307,1.209,1.129,3.159,2.512,5.012,1.453,1.941,3.11,3.286,4.665,3.785.502.162.993.244,1.464.244.68,0,1.284-.176,1.744-.511.758-.554,1.205-1.258,1.329-2.091.232-1.543-.588-3.579-2.434-6.047l-1.23-1.646c-.982-1.315-.94-2.169-.731-2.654.183-.425.576-.719,1.021-.773.068-.005.14-.008.213-.008,2.243,0,5.421,3.722,6.248,6.608l.021.074.065-.039c.466-.269,1.008-.578,1.339-.768l.04-.022-.012-.043Z" fill="#1d1d1b"></path>
    </g>
    <path d="M169.694,297.861l-.431,1.885,4.664,1.023.42-1.852-4.653-1.055Z" fill="#1d1d1b"></path>
  </g>
</svg>